<?xml version="1.0" standalone="no"?>
<!DOCTYPE svg PUBLIC "-//W3C//DTD SVG 20010904//EN"
 "http://www.w3.org/TR/2001/REC-SVG-20010904/DTD/svg10.dtd">
<svg version="1.0" xmlns="http://www.w3.org/2000/svg"
 width="1082.000000pt" height="1078.000000pt" viewBox="0 0 1082.000000 1078.000000"
 preserveAspectRatio="xMidYMid meet">

<g transform="translate(0.000000,1078.000000) scale(0.100000,-0.100000)"
fill="#000000" stroke="none">
<path d="M5085 10769 c-1155 -66 -2246 -500 -3155 -1258 -145 -120 -451 -420
-584 -571 -640 -726 -1083 -1637 -1255 -2580 -163 -889 -100 -1814 179 -2660
214 -649 548 -1249 991 -1781 133 -159 520 -548 669 -670 741 -611 1561 -1001
2471 -1173 373 -70 381 -71 999 -71 l565 0 180 28 c446 69 823 167 1197 313
190 73 255 103 468 209 249 124 349 183 585 340 864 578 1553 1403 1957 2345
403 939 533 1921 387 2925 -168 1157 -717 2235 -1555 3055 -270 265 -503 455
-789 647 -977 653 -2135 969 -3310 902z m635 -1019 c1354 -101 2578 -820 3337
-1960 387 -583 623 -1244 705 -1975 17 -160 18 -719 0 -880 -177 -1604 -1189
-2969 -2663 -3593 -941 -398 -2016 -451 -2994 -147 -790 246 -1494 711 -2043
1351 -216 253 -439 588 -590 891 -113 224 -255 608 -317 853 -116 460 -158
944 -124 1418 93 1309 793 2524 1888 3280 181 125 309 200 533 312 611 305
1238 455 1918 459 118 0 276 -4 350 -9z"/>
<path d="M3195 7209 c-156 -32 -236 -58 -335 -110 -30 -16 -74 -38 -97 -49
-24 -12 -43 -25 -43 -30 0 -6 -5 -10 -11 -10 -6 0 -25 -11 -43 -25 -17 -14
-60 -49 -96 -78 -36 -28 -72 -61 -82 -72 -9 -11 -34 -38 -55 -61 -38 -41 -143
-189 -143 -202 0 -7 -38 -90 -67 -147 -21 -41 -52 -181 -65 -296 -16 -142 19
-406 66 -494 9 -16 16 -35 16 -41 0 -17 61 -134 70 -134 4 0 11 -10 14 -22 7
-24 103 -142 226 -276 41 -45 80 -93 85 -106 6 -13 15 -29 21 -37 25 -32 33
-114 33 -362 0 -210 3 -262 16 -287 8 -16 15 -39 15 -51 0 -36 56 -142 98
-189 23 -23 65 -57 96 -74 54 -31 61 -38 146 -173 57 -91 133 -133 240 -133
30 0 47 6 65 25 50 49 17 116 -64 129 -52 8 -97 40 -110 77 -15 43 7 49 176
49 81 0 153 4 158 8 19 13 33 58 28 86 -4 17 -18 35 -37 47 -28 17 -53 19
-231 20 -110 0 -226 4 -259 8 -52 7 -63 12 -97 50 -69 76 -53 91 96 91 109 0
112 1 138 28 15 15 27 39 27 52 0 13 -12 37 -27 52 -26 27 -29 28 -142 29
-156 1 -165 5 -169 55 -5 68 -3 68 284 74 278 5 284 7 286 66 2 72 -17 84
-137 84 -48 0 -68 5 -89 21 l-26 20 0 404 c0 375 1 405 18 413 9 5 75 12 146
14 126 5 130 6 153 32 31 37 29 71 -6 107 -29 29 -30 29 -151 29 -67 0 -130 5
-141 10 -14 8 -19 22 -20 53 -1 142 -50 252 -133 301 -38 22 -56 26 -126 26
-66 0 -89 -4 -130 -25 -106 -54 -144 -119 -144 -250 -1 -96 2 -104 77 -198 32
-41 111 -75 192 -83 116 -11 105 34 105 -429 l0 -404 -27 -21 c-22 -17 -37
-21 -67 -17 -21 3 -43 10 -49 16 -7 7 -15 55 -19 108 -4 63 -13 110 -26 137
-11 22 -25 52 -32 66 -26 57 -44 82 -103 144 -155 159 -222 247 -294 386 -13
25 -29 70 -34 100 -6 30 -16 61 -22 69 -16 19 -17 422 -1 442 7 8 15 30 18 49
6 33 47 136 67 170 5 8 12 22 16 30 15 35 100 149 147 198 59 62 177 161 221
186 17 9 48 28 70 41 45 27 50 29 125 60 149 60 185 67 385 72 187 5 190 6
218 31 35 34 35 70 -1 105 l-28 27 -170 -1 c-93 -1 -187 -5 -209 -10z m-240
-1165 c23 -9 51 -77 59 -146 7 -52 6 -58 -15 -69 -38 -20 -127 -12 -160 14
-64 50 -55 169 16 197 25 11 78 12 100 4z"/>
<path d="M3645 6910 c-16 -5 -36 -17 -42 -27 -20 -27 -16 -86 7 -111 20 -21
28 -22 213 -22 106 0 202 3 213 6 23 6 44 42 44 74 0 28 -20 68 -39 76 -25 11
-362 15 -396 4z"/>
<path d="M6160 6560 l0 -310 40 0 40 0 0 136 c0 156 11 193 65 218 49 23 92
20 120 -9 24 -24 25 -28 25 -185 l0 -160 46 0 46 0 -4 163 c-4 180 -15 219
-67 250 -59 35 -181 14 -216 -37 -14 -18 -15 -7 -15 112 l0 132 -40 0 -40 0 0
-310z"/>
<path d="M7380 6560 l0 -310 35 0 35 0 0 100 c0 55 3 100 8 100 4 0 52 -45
107 -100 l100 -100 50 0 50 0 -110 110 -110 110 100 100 100 100 -50 0 c-50 0
-51 -1 -140 -90 -49 -49 -93 -90 -97 -90 -5 0 -8 86 -8 190 l0 190 -35 0 -35
0 0 -310z"/>
<path d="M6660 6820 l0 -40 45 0 45 0 0 40 0 40 -45 0 -45 0 0 -40z"/>
<path d="M5590 6815 l0 -35 100 0 100 0 0 -265 0 -265 45 0 45 0 0 265 0 265
100 0 100 0 0 35 0 35 -245 0 -245 0 0 -35z"/>
<path d="M7030 6673 c-8 -3 -30 -19 -47 -36 l-33 -31 -6 32 c-6 28 -10 32 -40
32 l-34 0 0 -210 0 -210 40 0 40 0 0 130 c0 179 23 227 113 237 36 4 48 1 73
-20 l29 -25 3 -161 4 -161 40 0 40 0 -4 168 c-3 185 -13 218 -68 247 -28 14
-119 19 -150 8z"/>
<path d="M6660 6460 l0 -210 40 0 40 0 0 210 0 210 -40 0 -40 0 0 -210z"/>
<path d="M7810 6300 l0 -50 50 0 50 0 0 50 0 50 -50 0 -50 0 0 -50z"/>
<path d="M3905 6184 c-72 -18 -95 -45 -81 -96 12 -48 35 -53 275 -56 188 -3
231 -1 267 13 64 24 72 84 16 122 -24 16 -52 18 -242 20 -118 1 -224 -1 -235
-3z"/>
<path d="M3676 5795 c-35 -33 -36 -83 0 -116 25 -24 28 -24 262 -27 283 -4
329 0 365 34 35 33 35 68 -2 105 l-29 29 -285 0 -284 0 -27 -25z"/>
<path d="M5600 5677 c-140 -40 -210 -154 -197 -326 6 -89 24 -137 72 -190 73
-81 224 -108 334 -60 67 28 77 41 62 78 l-12 28 -56 -30 c-44 -24 -67 -29
-117 -29 -96 0 -162 46 -186 130 -17 61 -12 182 9 227 52 112 180 146 299 80
44 -24 47 -25 59 -9 18 24 16 38 -5 57 -50 45 -180 67 -262 44z"/>
<path d="M7350 5625 c-33 -11 -35 -14 -38 -63 l-3 -52 -40 0 c-38 0 -39 -1
-39 -35 0 -34 1 -35 40 -35 l40 0 0 -125 c0 -139 10 -178 55 -213 21 -17 41
-22 86 -22 l59 0 0 36 c0 32 -3 36 -21 31 -11 -3 -33 -1 -49 5 -39 13 -50 54
-50 186 l0 102 60 0 60 0 0 35 0 35 -60 0 -59 0 -3 63 -3 64 -35 -12z"/>
<path d="M6158 5508 c-21 -5 -49 -23 -62 -39 -14 -16 -27 -29 -30 -29 -3 0 -6
16 -6 36 0 35 -1 35 -37 32 -23 -2 -38 -8 -37 -15 1 -7 2 -103 3 -213 l1 -200
40 0 40 0 0 130 c0 186 23 230 122 230 l48 0 0 35 c0 19 -4 35 -9 35 -5 0 -15
2 -23 4 -7 2 -30 -1 -50 -6z"/>
<path d="M6449 5510 c-83 -15 -139 -72 -158 -161 -18 -81 7 -177 56 -221 65
-59 208 -64 297 -12 17 10 18 15 7 41 l-12 30 -47 -24 c-100 -52 -206 -10
-219 85 l-6 42 152 0 151 0 0 28 c0 40 -20 103 -41 133 -32 46 -111 72 -180
59z m115 -91 c14 -17 26 -34 26 -39 0 -5 3 -15 6 -24 5 -14 -8 -16 -110 -16
-74 0 -116 4 -116 10 0 21 30 69 52 84 13 9 43 16 69 16 40 0 51 -4 73 -31z"/>
<path d="M6915 5513 c-52 -9 -66 -15 -95 -39 -61 -52 -88 -141 -70 -235 13
-66 43 -111 93 -140 56 -31 155 -24 195 14 36 34 42 34 42 -3 0 -28 2 -30 40
-30 l40 0 -2 213 -3 212 -37 3 c-36 3 -38 2 -38 -27 0 -37 -6 -38 -39 -7 -27
25 -90 45 -126 39z m95 -78 c16 -9 36 -29 45 -45 20 -39 20 -142 -1 -186 -34
-72 -129 -84 -188 -25 -26 26 -31 39 -34 96 -5 76 8 115 50 150 34 29 84 33
128 10z"/>
<path d="M7715 5505 c-35 -9 -60 -25 -86 -53 -102 -109 -66 -312 64 -361 41
-16 152 -13 194 4 56 24 64 33 51 61 -13 28 -20 29 -52 9 -37 -24 -115 -30
-159 -11 -28 11 -43 26 -57 58 -36 79 -40 77 132 80 l153 3 -4 45 c-4 54 -31
111 -67 139 -25 20 -38 24 -96 35 -13 2 -45 -2 -73 -9z m116 -65 c21 -12 49
-60 49 -85 0 -13 -17 -15 -110 -15 -93 0 -110 2 -110 16 0 23 19 57 44 76 24
20 96 24 127 8z"/>
<path d="M8040 5130 l0 -50 50 0 50 0 0 50 0 50 -50 0 -50 0 0 -50z"/>
<path d="M3578 4773 c-24 -6 -42 -57 -31 -90 14 -41 47 -53 146 -53 66 0 96 4
118 17 51 30 47 103 -7 123 -25 10 -193 12 -226 3z"/>
<path d="M5010 4200 l0 -300 40 0 40 0 0 300 0 300 -40 0 -40 0 0 -300z"/>
<path d="M7753 4448 c-32 -11 -33 -13 -33 -64 l0 -54 -40 0 c-39 0 -40 -1 -40
-35 0 -34 1 -35 40 -35 l40 0 0 -130 c0 -192 24 -230 145 -230 l55 0 0 34 c0
34 -1 35 -47 38 -65 4 -73 22 -73 171 l0 117 60 0 60 0 0 35 0 35 -60 0 -60 0
0 65 c0 36 -3 65 -7 64 -5 -1 -23 -6 -40 -11z"/>
<path d="M5395 4325 c-22 -8 -50 -25 -62 -39 -17 -20 -22 -22 -27 -10 -3 9 -6
24 -6 35 0 16 -7 19 -41 19 -41 0 -41 0 -35 -31 3 -17 6 -114 6 -215 l0 -184
39 0 40 0 3 150 3 150 33 32 c28 29 39 33 83 33 41 0 54 -4 70 -24 17 -21 19
-41 19 -182 l0 -159 46 0 46 0 -4 168 c-3 134 -7 173 -21 199 -31 58 -119 85
-192 58z"/>
<path d="M5915 4331 c-36 -9 -82 -38 -94 -59 -6 -11 -10 -5 -15 22 -6 33 -10
36 -41 36 l-35 0 0 -215 0 -215 39 0 39 0 4 143 c2 117 6 148 21 170 41 63
139 74 175 19 14 -21 18 -55 21 -179 l3 -153 40 0 39 0 -3 168 c-3 180 -10
209 -58 243 -30 21 -93 30 -135 20z"/>
<path d="M6364 4331 c-95 -24 -154 -107 -154 -217 0 -133 80 -216 208 -215 77
0 133 27 169 83 25 38 28 50 28 133 0 83 -3 95 -28 133 -43 66 -143 103 -223
83z m116 -83 c52 -36 73 -117 50 -199 -29 -102 -168 -120 -217 -26 -21 40 -23
130 -4 176 29 67 110 90 171 49z"/>
<path d="M7285 4325 c-94 -33 -149 -148 -126 -263 23 -116 86 -167 198 -160
53 3 67 9 93 33 l30 29 0 -32 c0 -31 1 -32 45 -32 l45 0 -2 213 -3 212 -40 0
c-37 0 -40 -2 -43 -29 l-4 -28 -28 27 c-15 14 -45 31 -66 36 -50 11 -51 11
-99 -6z m129 -69 c43 -18 66 -67 66 -141 0 -105 -54 -165 -138 -151 -70 11
-106 69 -100 162 7 116 78 169 172 130z"/>
<path d="M8135 4331 c-55 -14 -95 -41 -123 -83 -24 -38 -27 -50 -27 -133 0
-82 3 -95 27 -132 53 -80 189 -110 293 -64 48 21 50 26 36 64 l-10 25 -47 -24
c-104 -53 -204 -12 -221 90 l-6 36 152 0 151 0 0 40 c0 45 -21 104 -48 133
-37 41 -118 63 -177 48z m114 -82 c21 -20 41 -59 41 -80 0 -5 -50 -9 -115 -9
-63 0 -115 2 -115 5 0 20 32 75 51 89 34 24 110 21 138 -5z"/>
<path d="M6670 4326 c0 -2 40 -98 89 -213 l89 -208 40 -3 39 -3 86 199 c48
110 90 207 93 216 6 15 1 17 -36 14 l-42 -3 -68 -164 c-55 -134 -69 -161 -77
-145 -6 10 -34 80 -63 154 -29 74 -58 141 -63 148 -8 11 -87 18 -87 8z"/>
<path d="M8450 3950 l0 -50 50 0 50 0 0 50 0 50 -50 0 -50 0 0 -50z"/>
<path d="M3491 3864 c-31 -39 -27 -76 10 -103 54 -40 116 -27 139 29 11 27 11
37 -3 66 -16 33 -19 34 -71 34 -47 0 -57 -4 -75 -26z"/>
</g>
</svg>
